<?xml version="1.0" encoding="UTF-8" standalone="no"?>
<svg
   xmlns:dc="http://purl.org/dc/elements/1.1/"
   xmlns:cc="http://creativecommons.org/ns#"
   xmlns:rdf="http://www.w3.org/1999/02/22-rdf-syntax-ns#"
   xmlns:svg="http://www.w3.org/2000/svg"
   xmlns="http://www.w3.org/2000/svg"
   viewBox="0 0 595.27557 841.88977"
   id="svg10"
   height="841.88977"
   width="595.27557"
   version="1.1">
  <metadata
     id="metadata16">
    <rdf:RDF>
      <cc:Work
         rdf:about="">
        <dc:format>image/svg+xml</dc:format>
        <dc:type
           rdf:resource="http://purl.org/dc/dcmitype/StillImage" />
      </cc:Work>
    </rdf:RDF>
  </metadata>
  <defs
     id="defs14" />
  <path
     id="path2"
     style="fill:#ffffff;fill-rule:evenodd"
     d="m 131.6177,336.236 c 0,-2.4406 0.8476,-4.2726 2.5424,-5.4901 1.3844,-1.0086 3.1269,-1.5097 5.2274,-1.5097 0.8591,0 2.0528,0.2148 3.5804,0.6446 1.0026,0.2863 1.7187,0.4654 2.1481,0.5371 0.3583,-0.0657 0.6446,-0.197 0.8595,-0.388 0.2148,-0.1908 0.3223,-0.4536 0.3223,-0.7937 h 1.1097 v 7.7337 h -0.9666 c -0.5967,-2.196 -1.635,-3.9027 -3.115,-5.1199 -1.2175,-1.0023 -2.6019,-1.5038 -4.1533,-1.5038 -1.074,0 -1.9633,0.3283 -2.6674,0.9845 -0.7041,0.6624 -1.0562,1.4799 -1.0562,2.4647 0,0.6922 0.2208,1.3544 0.6625,1.993 0.4413,0.6327 1.0919,1.1518 1.9511,1.5577 4.416,2.2793 6.6597,3.437 6.7314,3.4849 2.4585,1.7243 3.6876,3.8667 3.6876,6.427 0,2.0588 -0.722,3.8131 -2.166,5.2634 -1.4439,1.4499 -3.3596,2.1719 -5.7467,2.1719 -1.3365,0 -2.5897,-0.1253 -3.7593,-0.3759 -1.1695,-0.2506 -2.3156,-0.5071 -3.4373,-0.7699 -0.3342,0 -0.5731,0.1134 -0.716,0.3402 -0.1434,0.2267 -0.2389,0.4954 -0.2866,0.8056 h -1.0383 v -8.8436 h 1.0383 c 0.4295,2.3868 1.3306,4.2665 2.7034,5.639 1.3723,1.3728 3.0612,2.0588 5.0661,2.0588 1.0982,0 2.0291,-0.358 2.7927,-1.08 0.8595,-0.7878 1.2892,-1.8499 1.2892,-3.1927 0,-0.6684 -0.1911,-1.2829 -0.5729,-1.832 -0.3818,-0.5491 -1.0624,-1.0919 -2.0409,-1.6172 -3.843,-1.9391 -6.0392,-3.109 -6.588,-3.5209 -2.2677,-1.6469 -3.4016,-3.6697 -3.4016,-6.0687 z m 8.7245,-8.3248 h -2.0291 l 4.9771,-5.6925 c 0.1911,-0.239 0.4595,-0.4479 0.8056,-0.6267 0.3461,-0.1792 0.6741,-0.2688 0.9845,-0.2688 0.4297,0 0.8297,0.1613 1.1993,0.4836 0.3702,0.3223 0.555,0.6982 0.555,1.1277 0,0.3342 -0.0952,0.6267 -0.2922,0.8773 -0.197,0.2506 -0.6684,0.6386 -1.4264,1.1636 z m 12.615,12.7823 c 0,-0.7395 -0.1372,-1.2949 -0.4116,-1.6648 -0.2744,-0.3699 -0.7696,-0.6145 -1.4859,-0.7339 v -0.8234 h 6.8029 v 2.7927 c 0.6684,-0.955 1.3368,-1.6949 2.0052,-2.2198 0.883,-0.6685 1.802,-1.0027 2.7567,-1.0027 0.7877,0 1.474,0.2685 2.0591,0.8056 0.5845,0.5372 0.877,1.1994 0.877,1.9871 0,0.7163 -0.203,1.2892 -0.6086,1.7187 -0.4059,0.4297 -0.9547,0.6803 -1.6469,0.7517 -0.43,-0.0476 -0.8059,-0.155 -1.1279,-0.322 -0.3223,-0.167 -0.5789,-0.4059 -0.7699,-0.7163 -0.4536,-0.7637 -0.8952,-1.1455 -1.3247,-1.1455 -0.5252,0 -1.0026,0.3104 -1.4323,0.9309 -0.4297,0.6205 -0.6443,1.3845 -0.6443,2.2913 v 6.9105 c 0,1.1696 0.155,1.9455 0.4654,2.3273 0.3101,0.3818 1.0146,0.5729 2.1124,0.5729 v 0.8234 h -9.5241 v -0.8234 c 0.6922,-0.1435 1.1817,-0.37 1.468,-0.6804 0.2866,-0.3103 0.4295,-0.8115 0.4295,-1.5037 z m 18.3682,2.5781 v 5.1917 c 0,1.3365 0.1908,2.4227 0.5726,3.2581 0.5015,1.0743 1.2651,1.6115 2.2915,1.6115 1.0265,0 1.7425,-0.5252 2.1484,-1.5755 0.2149,-0.5491 0.4059,-1.5755 0.5729,-3.0793 v -3.2941 -2.1838 c 0,-1.3606 -0.1434,-2.435 -0.4297,-3.2227 -0.4536,-1.241 -1.2413,-1.8618 -2.3633,-1.8618 -1.1455,0 -1.9451,0.7639 -2.3989,2.2915 -0.2622,0.8833 -0.3935,1.838 -0.3935,2.8644 z m -5.2636,1.6112 c 0,-2.2198 0.7939,-4.0816 2.3751,-5.5854 1.5815,-1.504 3.5328,-2.2558 5.8601,-2.2558 1.9454,0 3.6638,0.6622 5.1619,1.9871 1.4978,1.3249 2.4287,3.157 2.7867,5.4961 v 1.1815 c 0,2.2915 -0.6327,4.261 -1.8918,5.908 -1.45,1.9094 -3.4192,2.8641 -5.9137,2.8641 -2.4227,0 -4.4277,-0.7934 -6.0091,-2.3811 -1.5815,-1.5871 -2.3692,-3.6459 -2.3692,-6.1761 0,-0.1911 0,-0.3878 0,-0.5908 0,-0.2029 0,-0.352 0,-0.4476 z m 20.2297,-5.6571 c 0.597,-0.6684 1.3008,-1.1993 2.1127,-1.5933 0.8115,-0.3938 1.6228,-0.5908 2.4344,-0.5908 0.8356,0 1.6112,0.1732 2.3275,0.5193 0.716,0.3462 1.3844,0.9009 2.0049,1.6648 v -6.8746 c 0,-0.8353 -0.3699,-1.3484 -1.1097,-1.5394 -0.8833,-0.0718 -1.4205,-0.1316 -1.6115,-0.1789 v -0.8595 h 7.6983 v 20.4446 c 0,0.8592 0.1429,1.444 0.4294,1.7541 0.2866,0.3104 0.8595,0.4657 1.7187,0.4657 v 0.8235 c -0.7637,0 -1.9157,0.1253 -3.4552,0.3759 -1.5397,0.2506 -2.7153,0.5312 -3.5268,0.8413 v -2.3987 c -1.4559,1.599 -2.924,2.3987 -4.4039,2.3987 -2.2198,0 -3.9745,-0.9071 -5.2634,-2.721 -1.1217,-1.5755 -1.6826,-3.4492 -1.6826,-5.6214 0,-1.4085 0.2089,-2.7034 0.6267,-3.8846 0.4175,-1.1817 0.9845,-2.1903 1.7005,-3.0257 z m 3.0793,6.4089 c 0,3.3001 0.4654,5.3767 1.3963,6.2362 0.167,0.161 0.358,0.2863 0.5729,0.3699 0.2149,0.0836 0.4654,0.1494 0.752,0.197 0.5488,-0.0717 1.044,-0.2568 1.4857,-0.555 0.4416,-0.2925 0.8416,-0.6922 1.1996,-1.1874 0.1193,-0.1673 0.2506,-0.394 0.3937,-0.6806 v -8.7599 c -0.2863,-0.7104 -0.6922,-1.2535 -1.2172,-1.6172 -0.5252,-0.3702 -1.0502,-0.555 -1.5755,-0.555 -1.2889,0 -2.1603,0.8294 -2.6138,2.4942 -0.2625,0.9728 -0.3937,2.3272 -0.3937,4.0578 z m 16.2195,-13.2835 c 0,-0.5249 -0.1374,-0.9428 -0.4118,-1.2529 -0.2744,-0.3104 -0.722,-0.4654 -1.3425,-0.4654 v -0.9312 h 6.7311 v 15.4675 l 4.1893,-4.1173 c 0.3819,-0.3821 0.6325,-0.6565 0.7518,-0.8235 0.2387,-0.3342 0.358,-0.6446 0.358,-0.9309 0,-0.2865 -0.1372,-0.5014 -0.4116,-0.6445 -0.2747,-0.1432 -0.8297,-0.2625 -1.6651,-0.3581 v -0.8234 h 7.6978 v 0.8234 c -1.0261,0.1432 -1.993,0.5131 -2.9001,1.1098 -0.167,0.1193 -1.4678,1.2889 -3.9028,3.509 l 6.66,9.2375 c 0.2625,0.3581 0.4295,0.5851 0.5012,0.6804 0.1911,0.2148 0.4178,0.3223 0.68,0.3223 v 0.8234 h -8.378 v -0.8234 c 0.3342,0 0.6743,-0.0479 1.0204,-0.1435 0.3461,-0.0952 0.5191,-0.2863 0.5191,-0.5726 0,-0.2625 -0.1551,-0.6086 -0.4655,-1.0386 -0.1193,-0.1669 -0.3223,-0.4294 -0.6086,-0.7874 l -3.2224,-4.6188 -0.8235,0.9309 v 3.6161 c 0,0.3819 0.006,0.7339 0.0179,1.0562 0.0119,0.3223 0.0836,0.5967 0.2148,0.8238 0.1313,0.2267 0.37,0.3878 0.7161,0.4833 0.3461,0.0955 0.6624,0.1788 0.949,0.2506 v 0.8234 h -8.6289 v -0.8234 c 1.1695,0 1.7543,-0.728 1.7543,-2.1841 z m 22.3421,-3.1149 c 0.7637,0 1.4202,0.2744 1.9693,0.8237 0.549,0.5488 0.8234,1.2053 0.8234,1.969 0,0.7639 -0.2744,1.4204 -0.8234,1.9695 -0.5491,0.5487 -1.2056,0.8234 -1.9693,0.8234 -0.7639,0 -1.4201,-0.2747 -1.9695,-0.8234 -0.5488,-0.5491 -0.8234,-1.2056 -0.8234,-1.9695 0,-0.7637 0.2746,-1.4202 0.8234,-1.969 0.5494,-0.5493 1.2056,-0.8237 1.9695,-0.8237 z m -4.3324,9.0586 v -0.8234 h 6.9103 v 13.57 c 0,0.6681 0.1193,1.1696 0.358,1.5038 0.2389,0.3339 0.6803,0.5368 1.3249,0.6086 v 0.8234 H 223.6 v -0.8234 c 0.6922,-0.1911 1.1758,-0.4417 1.4499,-0.7521 0.2747,-0.3101 0.4119,-0.8353 0.4119,-1.5752 v -10.7056 c 0,-0.6208 -0.1491,-1.0502 -0.4476,-1.2892 -0.2982,-0.2384 -0.7696,-0.4175 -1.4142,-0.5369 z m 19.6208,2.3987 c 0.2866,-3.2938 1.5877,-6.0029 3.9028,-8.1275 2.4111,-2.2198 5.3946,-3.3298 8.9512,-3.3298 3.0793,0 5.7526,0.9428 8.0203,2.8287 2.4109,2.0049 3.8671,4.6902 4.3682,8.056 0.0956,0.5488 0.1432,1.1815 0.1432,1.8975 0,3.2701 -1.0145,6.1107 -3.0433,8.5215 -2.3394,2.7689 -5.4306,4.1534 -9.2735,4.1534 -3.8671,0 -7.0237,-1.1756 -9.4703,-3.5266 -2.4466,-2.3514 -3.67,-5.3768 -3.67,-9.0766 z m 6.3017,0.0717 -0.0357,1.2175 c 0,3.6043 0.4774,6.3731 1.4323,8.3067 1.0741,2.1721 2.7091,3.2581 4.9051,3.2581 h 0.1432 c 2.1963,0 3.8313,-1.1755 4.9053,-3.5206 0.8592,-1.8919 1.2889,-4.3563 1.2889,-7.3996 v -2.2618 c 0,-3.1807 -0.5193,-5.6392 -1.5633,-7.3638 -1.0443,-1.7246 -2.6019,-2.5838 -4.6666,-2.5838 -2.0648,0 -3.6463,0.9544 -4.7501,2.8641 -1.1041,1.9097 -1.6591,4.4042 -1.6591,7.4832 z m 22.3064,0.2866 c 0.7399,-1.2889 1.7425,-2.2796 3.0076,-2.9718 1.2651,-0.6923 2.5662,-1.0384 3.9027,-1.0384 1.5038,0 2.8165,0.3223 3.9385,0.9667 1.2889,0.7401 1.9335,1.7305 1.9335,2.9718 0,0.6922 -0.2327,1.2472 -0.6985,1.6648 -0.4651,0.4178 -1.0202,0.6267 -1.6648,0.6267 -0.8056,-0.0955 -1.3484,-0.4416 -1.6231,-1.0383 -0.1848,-0.3818 -0.3282,-1.086 -0.4175,-2.1124 v -0.752 c 0,-0.358 -0.1613,-0.6443 -0.4836,-0.8592 -0.322,-0.2149 -0.722,-0.3223 -1.1994,-0.3223 -1.1457,0 -1.9573,0.7756 -2.4346,2.3272 -0.2863,0.955 -0.4298,2.1841 -0.4298,3.6879 0,2.0767 0.3223,3.7834 0.9669,5.12 0.883,1.8382 2.2916,2.7572 4.2248,2.7572 0.8356,0 1.5874,-0.2268 2.2558,-0.6806 0.4059,-0.2863 0.8592,-0.7279 1.3606,-1.3246 l 0.6443,0.6086 c -0.8112,1.1698 -1.8138,2.0948 -3.0075,2.7751 -1.1934,0.68 -2.4826,1.0202 -3.867,1.0202 -1.4797,0 -2.8106,-0.3818 -3.9921,-1.1455 -1.1814,-0.7642 -2.0826,-1.7665 -2.7031,-3.0078 -0.3104,-0.6443 -0.555,-1.3247 -0.7342,-2.041 -0.1788,-0.716 -0.2684,-1.4558 -0.2684,-2.2195 0,-1.7427 0.4294,-3.4138 1.2889,-5.0128 z m 16.1836,-8.7007 c 0,-0.5487 -0.1729,-0.9547 -0.5191,-1.2171 -0.3461,-0.2628 -0.7937,-0.4298 -1.3427,-0.5012 v -0.8595 h 6.8388 v 10.061 c 0.7458,-0.883 1.5815,-1.5695 2.5062,-2.0585 0.9249,-0.4895 1.832,-0.7342 2.7212,-0.7342 1.3725,0 2.5064,0.4357 3.4075,1.3071 0.9009,0.8711 1.3547,2.0466 1.3547,3.5266 v 9.5238 c 0,0.5494 0.1488,0.961 0.4473,1.2354 0.2982,0.2746 0.7339,0.4475 1.3068,0.5193 v 0.8234 h -8.4498 v -0.8234 c 0.5253,0 0.9369,-0.1732 1.2353,-0.5193 0.2985,-0.3462 0.4476,-0.8054 0.4476,-1.3782 v -9.1662 c 0,-0.955 -0.1791,-1.635 -0.5431,-2.0409 -0.364,-0.4056 -0.8475,-0.6086 -1.4561,-0.6086 -0.5551,0 -1.128,0.203 -1.7065,0.6086 -0.4833,0.3342 -0.9071,0.7758 -1.2711,1.3249 v 8.951 c 0,0.3818 0,0.6922 0,0.9312 0.1131,0.6202 0.2863,1.074 0.5131,1.3603 0.2327,0.2866 0.6443,0.4654 1.2413,0.5372 v 0.8234 h -8.5932 v -0.8234 c 0.6684,-0.167 1.1219,-0.3581 1.3606,-0.5729 0.3342,-0.2863 0.5012,-0.7518 0.5012,-1.3966 v -0.4295 z m 20.4446,8.3424 c 0,-0.7395 -0.1375,-1.2949 -0.4119,-1.6648 -0.2744,-0.3699 -0.7696,-0.6145 -1.4859,-0.7339 v -0.8234 h 6.8028 v 2.7927 c 0.6687,-0.955 1.3369,-1.6949 2.0053,-2.2198 0.883,-0.6685 1.802,-1.0027 2.7569,-1.0027 0.7878,0 1.4738,0.2685 2.0588,0.8056 0.5848,0.5372 0.8774,1.1994 0.8774,1.9871 0,0.7163 -0.2033,1.2892 -0.6089,1.7187 -0.4056,0.4297 -0.9547,0.6803 -1.6469,0.7517 -0.4298,-0.0476 -0.8056,-0.155 -1.1279,-0.322 -0.3223,-0.167 -0.5789,-0.4059 -0.7699,-0.7163 -0.4536,-0.7637 -0.8952,-1.1455 -1.3247,-1.1455 -0.5252,0 -1.0026,0.3104 -1.4323,0.9309 -0.4295,0.6205 -0.6443,1.3845 -0.6443,2.2913 v 6.9105 c 0,1.1696 0.155,1.9455 0.4654,2.3273 0.3104,0.3818 1.0145,0.5729 2.1124,0.5729 v 0.8234 h -9.5241 v -0.8234 c 0.6922,-0.1435 1.1817,-0.37 1.468,-0.6804 0.2866,-0.3103 0.4298,-0.8115 0.4298,-1.5037 z m 18.3679,2.5781 v 5.1917 c 0,1.3365 0.1908,2.4227 0.5726,3.2581 0.5015,1.0743 1.2651,1.6115 2.2918,1.6115 1.0262,0 1.7422,-0.5252 2.1481,-1.5755 0.2149,-0.5491 0.4059,-1.5755 0.5729,-3.0793 v -3.2941 -2.1838 c 0,-1.3606 -0.1432,-2.435 -0.4297,-3.2227 -0.4536,-1.241 -1.2413,-1.8618 -2.363,-1.8618 -1.1458,0 -1.9454,0.7639 -2.3992,2.2915 -0.2622,0.8833 -0.3935,1.838 -0.3935,2.8644 z m -5.2634,1.6112 c 0,-2.2198 0.7937,-4.0816 2.3749,-5.5854 1.5815,-1.504 3.5328,-2.2558 5.8601,-2.2558 1.9454,0 3.664,0.6622 5.1619,1.9871 1.4978,1.3249 2.4287,3.157 2.7867,5.4961 v 1.1815 c 0,2.2915 -0.6324,4.261 -1.8916,5.908 -1.4502,1.9094 -3.4194,2.8641 -5.9136,2.8641 -2.4228,0 -4.428,-0.7934 -6.0094,-2.3811 -1.5812,-1.5871 -2.369,-3.6459 -2.369,-6.1761 0,-0.1911 0,-0.3878 0,-0.5908 0,-0.2029 0,-0.352 0,-0.4476 z m 19.7283,-4.2607 c 0,-0.8354 -0.1553,-1.4202 -0.4654,-1.7544 -0.1673,-0.191 -0.3997,-0.3223 -0.6982,-0.3937 -0.2982,-0.0717 -0.555,-0.1313 -0.7699,-0.1792 v -0.8234 h 6.9103 v 2.5778 c 0.5729,-1.0026 1.3008,-1.7544 2.1841,-2.2558 0.8833,-0.5012 1.8142,-0.7518 2.7927,-0.7518 1.7665,0 3.0793,0.5369 3.9385,1.6113 0.6684,0.8353 1.0026,1.8617 1.0026,3.0789 v 9.381 c 0,0.5967 0.1372,1.0863 0.4118,1.4681 0.2744,0.3818 0.6982,0.5729 1.2711,0.5729 v 0.8234 h -8.3784 v -0.8234 c 0.6205,-0.0718 1.0681,-0.2566 1.3428,-0.5551 0.2744,-0.2982 0.4116,-0.7696 0.4116,-1.4144 v -9.0224 c 0,-0.8833 -0.1193,-1.5398 -0.3577,-1.9696 -0.239,-0.4294 -0.7044,-0.68 -1.3967,-0.7517 -0.5728,0 -1.116,0.1431 -1.629,0.4294 -0.5134,0.2866 -1.0443,0.8119 -1.5934,1.5755 v 9.8108 c 0,0.5249 0.1494,0.9725 0.4476,1.3424 0.2985,0.37 0.7101,0.5551 1.2353,0.5551 v 0.8234 h -8.5932 v -0.8234 c 0.6684,-0.1435 1.1101,-0.2985 1.3249,-0.4655 0.4059,-0.3104 0.6086,-0.8354 0.6086,-1.5755 z m 19.8536,-0.358 c -0.4714,-0.9071 -0.722,-1.3845 -0.7458,-1.4324 -0.2803,-0.3577 -0.6982,-0.5369 -1.2413,-0.5369 v -0.8234 h 8.9513 v 0.8234 c -1.2413,0 -1.8978,0.3342 -1.9693,1.0026 0.0238,0.1432 0.1372,0.4655 0.3402,0.9667 0.2027,0.5011 0.364,0.9428 0.4833,1.3249 l 2.5421,6.3731 2.3632,-6.6597 c 0.167,-0.4535 0.2923,-0.8116 0.3759,-1.0741 0.0836,-0.2627 0.1253,-0.5014 0.1253,-0.716 0,-0.8118 -0.6565,-1.2175 -1.9695,-1.2175 v -0.8234 h 5.3711 v 0.8234 c -0.3821,0.1432 -0.752,0.2744 -1.1101,0.3941 -0.3342,0.2862 -0.6327,0.7636 -0.8951,1.432 -0.5967,1.5038 -1.3845,3.5683 -2.3633,6.1943 -0.3577,0.9547 -1.1217,2.9715 -2.2915,6.0508 -1.0741,2.8406 -1.7901,4.6783 -2.1481,5.514 -0.5491,1.3844 -1.1937,2.3272 -1.9335,2.8287 -0.5967,0.4056 -1.444,0.6086 -2.5421,0.6086 -0.9071,0 -1.6889,-0.2387 -2.3451,-0.7164 -0.6565,-0.4773 -0.9848,-1.1695 -0.9848,-2.0766 0,-0.6265 0.1911,-1.1636 0.5729,-1.6172 0.3821,-0.4473 0.9309,-0.6741 1.6472,-0.6741 h 0.1429 c 0.555,0 1.0085,0.161 1.3609,0.4833 0.358,0.3221 0.5369,0.7577 0.5369,1.3068 0,0.1673 0,0.2985 0,0.394 0,0.0953 0,0.1789 0,0.2506 0.0717,0.358 0.2684,0.5369 0.5969,0.5369 0.3997,0 0.7696,-0.1789 1.1217,-0.5369 0.3045,-0.3818 0.5908,-0.8592 0.8592,-1.4323 0.2687,-0.5729 0.5907,-1.4919 0.9669,-2.757 -0.0717,-0.1908 -0.6982,-1.7782 -1.8797,-4.7619 -0.8535,-2.1484 -1.4921,-3.7474 -1.9156,-4.7979 -0.6387,-1.5755 -1.3127,-3.1269 -2.0231,-4.6545 z m 27.8739,9.4524 v -15.8259 c 0,-1.1695 -0.155,-1.9689 -0.4651,-2.3986 -0.4298,-0.5729 -1.2771,-0.8592 -2.5422,-0.8592 v -0.8595 h 11.744 c 2.912,0 5.1437,0.5491 6.6951,1.647 1.6949,1.1936 2.5424,2.912 2.5424,5.1559 0,1.5993 -0.6208,2.9718 -1.8618,4.1173 -1.0981,1.0026 -2.5064,1.6948 -4.225,2.077 -0.6446,0.1669 -1.4261,0.2684 -2.3454,0.3044 -0.919,0.0357 -2.166,0.0536 -3.7414,0.0536 v 7.0894 c 0,1.1455 0.2505,1.8975 0.7517,2.2555 0.3345,0.2387 1.1339,0.4417 2.3992,0.6086 v 0.8952 h -11.9588 v -0.8952 c 1.241,-0.1193 2.0526,-0.3699 2.4347,-0.7517 0.3818,-0.3818 0.5726,-1.2532 0.5726,-2.6138 z m 5.8006,-17.4011 v 9.5599 c 1.1457,0 2.0349,-0.0596 2.6674,-0.1792 0.6324,-0.1193 1.1877,-0.3342 1.665,-0.6443 0.6205,-0.3821 1.0622,-1.0383 1.3247,-1.9692 0.191,-0.6922 0.2863,-1.5041 0.2863,-2.4347 0,-1.2416 -0.0953,-2.2079 -0.2863,-2.9001 -0.3104,-1.0982 -0.8711,-1.8621 -1.6827,-2.2915 -0.239,-0.1435 -0.5312,-0.2509 -0.8773,-0.3223 -0.3461,-0.0718 -0.8175,-0.1078 -1.4142,-0.1078 -0.5729,0 -0.9967,0.1137 -1.2711,0.3405 -0.2747,0.2265 -0.4118,0.5428 -0.4118,0.9487 z m 15.4318,8.3781 c 0,-0.7395 -0.1375,-1.2949 -0.4119,-1.6648 -0.2744,-0.3699 -0.7696,-0.6145 -1.4859,-0.7339 v -0.8234 h 6.8028 v 2.7927 c 0.6684,-0.955 1.3369,-1.6949 2.0053,-2.2198 0.883,-0.6685 1.8019,-1.0027 2.7569,-1.0027 0.7878,0 1.4738,0.2685 2.0588,0.8056 0.5848,0.5372 0.8774,1.1994 0.8774,1.9871 0,0.7163 -0.2033,1.2892 -0.6089,1.7187 -0.4057,0.4297 -0.9547,0.6803 -1.6469,0.7517 -0.4298,-0.0476 -0.8057,-0.155 -1.128,-0.322 -0.3223,-0.167 -0.5788,-0.4059 -0.7698,-0.7163 -0.4536,-0.7637 -0.8952,-1.1455 -1.3247,-1.1455 -0.5252,0 -1.0026,0.3104 -1.4323,0.9309 -0.4295,0.6205 -0.6443,1.3845 -0.6443,2.2913 v 6.9105 c 0,1.1696 0.155,1.9455 0.4654,2.3273 0.3101,0.3818 1.0145,0.5729 2.1124,0.5729 v 0.8234 h -9.5241 v -0.8234 c 0.6922,-0.1435 1.1817,-0.37 1.468,-0.6804 0.2866,-0.3103 0.4298,-0.8115 0.4298,-1.5037 z m 25.3856,-2.9358 c 1.0024,0.4059 1.7541,0.9547 2.2556,1.6469 0.5011,0.6922 0.7517,1.4681 0.7517,2.3272 v 9.5959 c 0,0.4773 0.1792,0.752 0.5372,0.8234 l 0.1431,0.0715 c 0.2149,-0.0235 0.3938,-0.1191 0.5372,-0.2863 0.1431,-0.167 0.2268,-0.2506 0.2506,-0.2506 l 0.5371,0.752 c -0.4538,0.5967 -1.0264,1.086 -1.7186,1.4681 -0.6922,0.3818 -1.3487,0.5726 -1.9692,0.5726 -1.0506,0 -1.8261,-0.2149 -2.3213,-0.6443 -0.5015,-0.4298 -0.8235,-1.0622 -0.9729,-1.8978 -1.6767,1.6948 -3.7057,2.5421 -6.0868,2.5421 -0.9309,0 -1.7306,-0.3101 -2.3987,-0.9309 -0.7401,-0.6922 -1.11,-1.599 -1.11,-2.721 0,-1.7424 1.0145,-3.2105 3.0432,-4.4042 1.3607,-0.7877 3.5448,-1.5993 6.5523,-2.4346 v -3.5088 c 0,-0.6684 -0.3044,-1.2175 -0.913,-1.6472 -0.6086,-0.4294 -1.2592,-0.6443 -1.9514,-0.6443 -0.525,0 -1.0562,0.1015 -1.5931,0.3042 -0.5371,0.2032 -0.8058,0.5193 -0.8058,0.949 0,0.1908 0.1791,0.5012 0.5371,0.9309 0.358,0.4297 0.5372,0.8592 0.5372,1.2889 0,0.7163 -0.2327,1.2833 -0.6982,1.7008 -0.4657,0.4175 -1.0565,0.6265 -1.7722,0.6265 -0.0479,-0.0239 -0.1494,-0.0477 -0.3104,-0.0715 -0.6747,-0.0955 -1.158,-0.3759 -1.4562,-0.8413 -0.3044,-0.4657 -0.4535,-0.9609 -0.4535,-1.4859 v -0.394 c 0,-1.4083 0.8116,-2.4945 2.4347,-3.2582 1.2651,-0.5967 2.6855,-0.8952 4.2607,-0.8952 1.5993,0 2.9838,0.2387 4.1536,0.7161 z m -1.9695,7.4114 c -1.5038,0.4777 -2.6138,1.0982 -3.3298,1.8621 -0.5491,0.5967 -0.8833,1.3246 -1.0024,2.1841 0,0.7637 0.1489,1.4202 0.4476,1.969 0.2982,0.5493 0.7339,0.8237 1.3065,0.8237 0.6208,-0.1672 1.0862,-0.3461 1.3966,-0.5372 0.4295,-0.2625 0.8235,-0.6205 1.1815,-1.074 z m 9.5241,-4.1173 c 0.7399,-1.2889 1.7425,-2.2796 3.0076,-2.9718 1.2651,-0.6923 2.5659,-1.0384 3.9027,-1.0384 1.5038,0 2.8166,0.3223 3.9385,0.9667 1.2889,0.7401 1.9332,1.7305 1.9332,2.9718 0,0.6922 -0.2324,1.2472 -0.6981,1.6648 -0.4655,0.4178 -1.0202,0.6267 -1.6648,0.6267 -0.8056,-0.0955 -1.3488,-0.4416 -1.6231,-1.0383 -0.1849,-0.3818 -0.3283,-1.086 -0.4176,-2.1124 v -0.752 c 0,-0.358 -0.1613,-0.6443 -0.4836,-0.8592 -0.322,-0.2149 -0.722,-0.3223 -1.1993,-0.3223 -1.1458,0 -1.9573,0.7756 -2.4347,2.3272 -0.2863,0.955 -0.4297,2.1841 -0.4297,3.6879 0,2.0767 0.322,3.7834 0.9669,5.12 0.883,1.8382 2.2915,2.7572 4.2247,2.7572 0.8354,0 1.5871,-0.2268 2.2558,-0.6806 0.4057,-0.2863 0.8592,-0.7279 1.3607,-1.3246 l 0.6443,0.6086 c -0.8116,1.1698 -1.8139,2.0948 -3.0076,2.7751 -1.1934,0.68 -2.4826,1.0202 -3.867,1.0202 -1.4797,0 -2.8106,-0.3818 -3.992,-1.1455 -1.1815,-0.7642 -2.0826,-1.7665 -2.7034,-3.0078 -0.3101,-0.6443 -0.5548,-1.3247 -0.7339,-2.041 -0.1792,-0.716 -0.2685,-1.4558 -0.2685,-2.2195 0,-1.7427 0.4295,-3.4138 1.2889,-5.0128 z m 16.3089,-0.7877 c -0.4714,-0.9071 -0.722,-1.3845 -0.7458,-1.4324 -0.2803,-0.3577 -0.6982,-0.5369 -1.2413,-0.5369 v -0.8234 h 8.9513 v 0.8234 c -1.2413,0 -1.8978,0.3342 -1.9693,1.0026 0.0238,0.1432 0.1372,0.4655 0.3402,0.9667 0.2027,0.5011 0.3637,0.9428 0.4833,1.3249 l 2.5421,6.3731 2.3632,-6.6597 c 0.167,-0.4535 0.2923,-0.8116 0.3759,-1.0741 0.0834,-0.2627 0.1253,-0.5014 0.1253,-0.716 0,-0.8118 -0.6565,-1.2175 -1.9695,-1.2175 v -0.8234 h 5.3711 v 0.8234 c -0.3821,0.1432 -0.752,0.2744 -1.1101,0.3941 -0.3342,0.2862 -0.6327,0.7636 -0.8951,1.432 -0.5967,1.5038 -1.3845,3.5683 -2.3633,6.1943 -0.3577,0.9547 -1.1219,2.9715 -2.2915,6.0508 -1.0741,2.8406 -1.7901,4.6783 -2.1481,5.514 -0.5491,1.3844 -1.1937,2.3272 -1.9335,2.8287 -0.5967,0.4056 -1.444,0.6086 -2.5421,0.6086 -0.9071,0 -1.6889,-0.2387 -2.3451,-0.7164 -0.6565,-0.4773 -0.9848,-1.1695 -0.9848,-2.0766 0,-0.6265 0.1908,-1.1636 0.5729,-1.6172 0.3818,-0.4473 0.9309,-0.6741 1.6472,-0.6741 h 0.1429 c 0.555,0 1.0085,0.161 1.3606,0.4833 0.3583,0.3221 0.5372,0.7577 0.5372,1.3068 0,0.1673 0,0.2985 0,0.394 0,0.0953 0,0.1789 0,0.2506 0.0717,0.358 0.2684,0.5369 0.5967,0.5369 0.3999,0 0.7698,-0.1789 1.1219,-0.5369 0.3045,-0.3818 0.5908,-0.8592 0.8592,-1.4323 0.2687,-0.5729 0.5907,-1.4919 0.9669,-2.757 -0.0717,-0.1908 -0.6982,-1.7782 -1.8799,-4.7619 -0.8533,-2.1484 -1.4919,-3.7474 -1.9154,-4.7979 -0.6387,-1.5755 -1.3127,-3.1269 -2.0231,-4.6545 z" />
  <path
     id="path4"
     style="fill:#E8811A;fill-rule:evenodd"
     d="m 454.7692,285.2012 c -7.0888,0.2169 -14.3919,-2.0563 -14.3919,7.0335 0,2.595 1.8923,4.8678 5.0847,4.8678 8.4402,0 9.0885,-6.6527 9.3072,-11.9013 z M 114.425,218.3636 h 22.312 v 17.1139 h -19.7514 c -11.4674,0 -20.8511,9.0002 -20.8511,19.9989 v 0 c 0,10.9982 9.3837,19.9984 20.8511,19.9984 h 10.1881 c 3.6394,-10.3725 14.1376,-16.5664 27.4542,-16.5664 h 1.461 c 15.2011,0 28.1321,10.442 28.1321,24.397 v 0.5952 c 0,15.636 -13.3088,24.3997 -29.5931,24.3997 -13.7792,0 -24.0283,-5.38 -27.5264,-15.8282 h 9.629 v -16.9956 h -9.5537 c -0.8979,2.5624 -1.3788,5.3804 -1.3788,8.4224 0,3.1585 0.4522,6.0152 1.3079,8.5715 H 114.425 c -19.9837,0 -36.3353,-16.6738 -36.3353,-37.0536 v 4e-4 c 0,-20.3793 16.3516,-37.0536 36.3353,-37.0536 z m 309.398,56.3433 c 0,-10.2251 8.9807,-16.0146 25.6436,-16.0146 h 1.2967 c 13.2009,0 22.4503,3.3011 22.4503,17.9604 v 23.1 c 0,2.9763 -0.5931,4.7612 2.5446,6.3844 v 0.6491 h -19.2049 l -1.2988,-4.4894 c -3.8421,3.8403 -10.5504,5.7887 -17.3126,5.7887 h -0.6466 c -9.0902,0 -16.0155,-4.1656 -16.0155,-14.1206 0,-8.3872 3.3528,-14.3902 15.6364,-16.5543 3.2998,-0.594 13.5231,-1.0266 18.8248,-2.0562 0.2174,-5.2487 -3.1372,-6.7075 -6.9796,-6.7075 -3.8399,0 -6.9762,3.5163 -6.9762,6.06 z m -44.0363,-14.5002 h 7.0323 v -6.2217 l 18.6118,-7.8963 v 14.118 h 8.331 v 10.8721 h -8.331 v 17.3143 c 0,5.9518 3.7316,5.1378 8.9785,5.1378 v 12.1748 c 0,0 -1.6219,1.5123 -10.8726,1.9454 -13.0374,0 -16.7177,-2.8659 -16.7177,-16.0129 v -20.5594 h -7.0323 z m -26.6698,17.7452 c 0,-3.9494 -4.0029,-7.4653 -7.6818,-7.4653 -6.547,0 -7.6837,8.4393 -7.6837,13.414 0,5.6278 1.6245,12.6623 8.3302,12.6623 3.8425,0 6.4388,-4.9782 7.0353,-8.8198 h 19.5823 c -1.4066,14.1197 -15.255,20.5572 -28.1851,20.5572 -15.3089,0 -26.9424,-7.3575 -26.9424,-23.7483 0,-15.9051 11.093,-25.6436 26.9424,-25.6436 12.3883,0 27.5364,4.979 27.5364,19.0435 z m -59.13,12.6044 h 17.8535 c -1.4623,15.2573 -17.5304,17.5818 -27.3751,17.5818 -15.202,0 -26.2941,-8.6554 -26.2941,-24.3979 0,-15.2546 11.2004,-24.9945 26.2941,-24.9945 16.2843,0 27.4281,6.1144 27.5351,28.89 h -35.9209 c 0,5.5169 4.4364,8.9789 9.6298,8.9789 4.1651,0 7.2493,-2.3249 8.2776,-6.0583 z m -17.2582,-12.5496 h 16.7156 c 0,-1.9492 -1.298,-3.8424 -2.5968,-5.1417 -1.2979,-1.297 -3.8402,-2.5949 -5.7869,-2.5949 -2.5437,0 -5.0852,1.2979 -6.3835,2.5949 -1.2979,1.2993 -2.5976,3.1925 -2.5976,5.1417 z m -83.0414,-17.8 h 18.1222 v 7.6819 c 3.8429,-5.7874 12.4444,-8.9802 18.8288,-8.9802 12.0083,0 17.9587,9.3593 17.9587,20.5041 v 27.5911 h -18.6105 v -24.3457 c 0,-4.0037 -0.2156,-10.8186 -6.383,-10.6577 -8.0606,0 -11.3613,3.679 -11.3613,11.3052 v 23.6982 h -18.5549 z m -38.6802,9.2529 c -11.2,0 -14.608,6.7061 -14.608,13.0362 v 0.7583 c 0,9.0337 4.5451,14.4976 13.4709,14.4976 8.9807,0 14.5533,-5.3552 14.5533,-14.4976 0,-5.0321 -4.5429,-13.7945 -13.4162,-13.7945 z" />
</svg>
