<?xml version="1.0" encoding="UTF-8" standalone="no"?>
<svg
   xmlns:dc="http://purl.org/dc/elements/1.1/"
   xmlns:cc="http://creativecommons.org/ns#"
   xmlns:rdf="http://www.w3.org/1999/02/22-rdf-syntax-ns#"
   xmlns:svg="http://www.w3.org/2000/svg"
   xmlns="http://www.w3.org/2000/svg"
   viewBox="0 0 595.27557 841.88977"
   id="svg8"
   height="841.88977"
   width="595.27557"
   version="1.1">
  <metadata
     id="metadata14">
    <rdf:RDF>
      <cc:Work
         rdf:about="">
        <dc:format>image/svg+xml</dc:format>
        <dc:type
           rdf:resource="http://purl.org/dc/dcmitype/StillImage" />
      </cc:Work>
    </rdf:RDF>
  </metadata>
  <defs
     id="defs12" />
  <path
     id="path2"
     style="fill:#E8811A;fill-rule:evenodd"
     d="m 454.7692,285.2012 c -7.0888,0.2169 -14.3919,-2.0563 -14.3919,7.0335 0,2.595 1.8923,4.8678 5.0847,4.8678 8.4402,0 9.0885,-6.6527 9.3072,-11.9013 z M 114.425,218.3636 h 22.312 v 17.1139 h -19.7514 c -11.4674,0 -20.8511,9.0002 -20.8511,19.9989 v 0 c 0,10.9982 9.3837,19.9984 20.8511,19.9984 h 10.1881 c 3.6394,-10.3725 14.1376,-16.5664 27.4542,-16.5664 h 1.461 c 15.2011,0 28.1321,10.442 28.1321,24.397 v 0.5952 c 0,15.636 -13.3088,24.3997 -29.5931,24.3997 -13.7792,0 -24.0283,-5.38 -27.5264,-15.8282 h 9.629 v -16.9956 h -9.5537 c -0.8979,2.5624 -1.3788,5.3804 -1.3788,8.4224 0,3.1585 0.4522,6.0152 1.3079,8.5715 H 114.425 c -19.9837,0 -36.3353,-16.6738 -36.3353,-37.0536 v 4e-4 c 0,-20.3793 16.3516,-37.0536 36.3353,-37.0536 z m 309.398,56.3433 c 0,-10.2251 8.9807,-16.0146 25.6436,-16.0146 h 1.2967 c 13.2009,0 22.4503,3.3011 22.4503,17.9604 v 23.1 c 0,2.9763 -0.5931,4.7612 2.5446,6.3844 v 0.6491 h -19.2049 l -1.2988,-4.4894 c -3.8421,3.8403 -10.5504,5.7887 -17.3126,5.7887 h -0.6466 c -9.0902,0 -16.0155,-4.1656 -16.0155,-14.1206 0,-8.3872 3.3528,-14.3902 15.6364,-16.5543 3.2998,-0.594 13.5231,-1.0266 18.8248,-2.0562 0.2174,-5.2487 -3.1372,-6.7075 -6.9796,-6.7075 -3.8399,0 -6.9762,3.5163 -6.9762,6.06 z m -44.0363,-14.5002 h 7.0323 v -6.2217 l 18.6118,-7.8963 v 14.118 h 8.331 v 10.8721 h -8.331 v 17.3143 c 0,5.9518 3.7316,5.1378 8.9785,5.1378 v 12.1748 c 0,0 -1.6219,1.5123 -10.8726,1.9454 -13.0374,0 -16.7177,-2.8659 -16.7177,-16.0129 v -20.5594 h -7.0323 z m -26.6698,17.7452 c 0,-3.9494 -4.0029,-7.4653 -7.6818,-7.4653 -6.547,0 -7.6837,8.4393 -7.6837,13.414 0,5.6278 1.6245,12.6623 8.3302,12.6623 3.8425,0 6.4388,-4.9782 7.0353,-8.8198 h 19.5823 c -1.4066,14.1197 -15.255,20.5572 -28.1851,20.5572 -15.3089,0 -26.9424,-7.3575 -26.9424,-23.7483 0,-15.9051 11.093,-25.6436 26.9424,-25.6436 12.3883,0 27.5364,4.979 27.5364,19.0435 z m -59.13,12.6044 h 17.8535 c -1.4623,15.2573 -17.5304,17.5818 -27.3751,17.5818 -15.202,0 -26.2941,-8.6554 -26.2941,-24.3979 0,-15.2546 11.2004,-24.9945 26.2941,-24.9945 16.2843,0 27.4281,6.1144 27.5351,28.89 h -35.9209 c 0,5.5169 4.4364,8.9789 9.6298,8.9789 4.1651,0 7.2493,-2.3249 8.2776,-6.0583 z m -17.2582,-12.5496 h 16.7156 c 0,-1.9492 -1.298,-3.8424 -2.5968,-5.1417 -1.2979,-1.297 -3.8402,-2.5949 -5.7869,-2.5949 -2.5437,0 -5.0852,1.2979 -6.3835,2.5949 -1.2979,1.2993 -2.5976,3.1925 -2.5976,5.1417 z m -83.0414,-17.8 h 18.1222 v 7.6819 c 3.8429,-5.7874 12.4444,-8.9802 18.8288,-8.9802 12.0083,0 17.9587,9.3593 17.9587,20.5041 v 27.5911 h -18.6105 v -24.3457 c 0,-4.0037 -0.2156,-10.8186 -6.383,-10.6577 -8.0606,0 -11.3613,3.679 -11.3613,11.3052 v 23.6982 h -18.5549 z m -38.6802,9.2529 c -11.2,0 -14.608,6.7061 -14.608,13.0362 v 0.7583 c 0,9.0337 4.5451,14.4976 13.4709,14.4976 8.9807,0 14.5533,-5.3552 14.5533,-14.4976 0,-5.0321 -4.5429,-13.7945 -13.4162,-13.7945 z" />
</svg>
