<?xml version="1.0" encoding="iso-8859-1"?>
<!-- Uploaded to: SVG Repo, www.svgrepo.com, Generator: SVG Repo Mixer Tools -->
<svg fill="#000000" height="800px" width="800px" version="1.1" id="Layer_1" xmlns="http://www.w3.org/2000/svg" xmlns:xlink="http://www.w3.org/1999/xlink" 
	 viewBox="0 0 496 496" xml:space="preserve">
<g>
	<g>
		<g>
			<path d="M432,248V40c0-22.056-17.944-40-40-40H40C17.944,0,0,17.944,0,40v208c0,19.312,13.768,35.472,32,39.192V496h272V288h88
				C414.056,288,432,270.056,432,248z M40,16h352c13.232,0,24,10.768,24,24H16C16,26.768,26.768,16,40,16z M16,56h400v32H16V56z
				 M288,480H48V288h24.408c4.088,49.192,45.352,88,95.592,88s91.504-38.808,95.592-88H288V480z M88.408,288h159.184
				c-4.032,40.368-38.184,72-79.592,72C126.592,360,92.432,328.368,88.408,288z M40,272c-13.232,0-24-10.768-24-24V104h400v144
				c0,13.232-10.768,24-24,24H40z"/>
			<path d="M336,160c-8.744,0-16.928,2.392-24,6.496c-7.072-4.104-15.256-6.496-24-6.496c-26.472,0-48,21.528-48,48s21.528,48,48,48
				c8.744,0,16.928-2.392,24-6.496c7.072,4.104,15.256,6.496,24,6.496c26.472,0,48-21.528,48-48S362.472,160,336,160z
				 M298.624,238.048C295.28,239.232,291.744,240,288,240c-17.648,0-32-14.352-32-32s14.352-32,32-32
				c3.744,0,7.28,0.768,10.624,1.952C291.992,186.184,288,196.632,288,208S291.992,229.816,298.624,238.048z M312,228.944
				c-4.92-5.624-8-12.896-8-20.944c0-8.048,3.08-15.312,8-20.944c4.92,5.624,8,12.896,8,20.944
				C320,216.048,316.92,223.312,312,228.944z M336,240c-3.744,0-7.28-0.768-10.624-1.952C332.008,229.816,336,219.368,336,208
				s-3.992-21.816-10.624-30.048C328.72,176.768,332.256,176,336,176c17.648,0,32,14.352,32,32S353.648,240,336,240z"/>
			<path d="M496,376c0-48.52-39.48-88-88-88c-48.52,0-88,39.48-88,88c0,20.84,7.192,40.416,20.176,56H320v64h176v-64h-20.176
				C488.808,416.416,496,396.84,496,376z M336,376c0-39.696,32.296-72,72-72c39.704,0,72,32.304,72,72c0,22-9.872,42.232-27.048,56
				H416v-8.408c13.536-1.96,24-13.528,24-27.592c0-15.44-12.56-28-28-28h-8c-6.616,0-12-5.384-12-12c0-6.616,5.384-12,12-12h8
				c6.616,0,12,5.384,12,12v4h16v-4c0-14.064-10.464-25.632-24-27.592V312h-16v16.408c-13.536,1.96-24,13.528-24,27.592
				c0,15.44,12.56,28,28,28h8c6.616,0,12,5.384,12,12c0,6.616-5.384,12-12,12h-8c-6.616,0-12-5.384-12-12v-4h-16v4
				c0,14.064,10.464,25.632,24,27.592V432h-36.952C345.872,418.232,336,398,336,376z M480,448v32H336v-32h16v16h16v-16h16v16h16v-16
				h16v16h16v-16h16v16h16v-16H480z"/>
		</g>
	</g>
</g>
</svg>