<?xml version="1.0" encoding="utf-8"?>
<!-- Generator: Adobe Illustrator 25.0.0, SVG Export Plug-In . SVG Version: 6.00 Build 0)  -->
<svg version="1.1" xmlns="http://www.w3.org/2000/svg" xmlns:xlink="http://www.w3.org/1999/xlink" x="0px" y="0px"
	 viewBox="0 0 700 700" style="enable-background:new 0 0 700 700;" xml:space="preserve">
<style type="text/css">
	.st0{display:none;}
	.st1{display:inline;fill-rule:evenodd;clip-rule:evenodd;fill:#FFFFFF;}
	.st2{display:inline;fill:#FFFFFF;}
	.st3{display:inline;}
	.st4{fill:#FFFFFF;}
	.st5{fill-rule:evenodd;clip-rule:evenodd;fill:#FFFFFF;}
</style>
<g id="Layer_1" class="st0">
	<path class="st1" d="M130.29,263.67l26.62,423.68l239.62-16.21L353.7,225.47c0,0-6.17-21.99-21.99-21.99s-21.61,11.19-20.45,24.7
		s5.02,104.95,5.02,104.95h-12.73l-5.4-129.65c0,0-7.33-26.24-28.94-26.24s-24.7,25.85-24.7,25.85l11.96,141.61h-11.58l-9.26-121.16
		c0,0-3.86-25.85-25.08-23.54s-20.45,25.47-20.45,25.47l10.42,142.77l-10.8,0.39l-9.26-108.81
		C180.45,259.82,154.6,211.2,130.29,263.67z"/>
	<path class="st2" d="M480.72,568.98H312.98l42.1-67.9c3.39-6.91,90.19-182.14,97.74-194.93c5.72-9.69,7.28-31.04-12.9-47.09
		c-15.99-12.7-29.2-4.02-32.54-1.4l-74.4,123.2l-55.73-16.31l-20.64-69.4l0.45-1.76c5.94-23.27,58.09-227.56,61.62-236.38
		c4.05-10.11,17.99-25.36,38.05-23.18c11.65,1.25,19.14,7.82,23.39,13.16l2.29-8.07c9.86-23.02,34.01-25.23,45.38-23.22
		c13.06,2.32,20.03,8.16,23.75,13.52c4.08-4.42,19.16-18.53,40.68-11.93c24.72,7.55,27.65,34.02,27.76,35.14l0.12,1.23l-2.45,8.79
		c6.56-4.16,15.17-6.26,25.61-2.87c25.87,8.39,25.4,25.49,25.37,26.21l-0.1,0.88L480.72,568.98z M336.54,555.86h133.23L555.49,85
		c-0.19-1.26-1.84-8.26-16.28-12.95c-14.7-4.73-22.05,9.01-23.12,11.22l-29.82,91.44l-12.55-3.8l33.04-118.27
		c-0.71-4.12-4.19-18.47-18.38-22.81c-13.82-4.22-23.9,4.8-26.84,7.89l-35.85,141.04l-12.77-3.01l29.6-135.56
		c-0.61-2.28-3.53-9.18-17.04-11.58c-0.91-0.15-22.54-3.59-30.85,15.09l-40.02,144.9l-12.71-3.23l29.75-127.7
		c-1.95-3.19-7.05-9.8-16.33-10.79c-13.39-1.35-22.26,9.49-24.46,15.01c-2.67,7.03-37.55,142.51-60.64,233l17.57,59.09l39.18,11.47
		l70.94-116.95c8.04-7.29,28.86-16.63,50.17,0.3c23.81,18.93,26.03,47.12,16.03,64.04c-5.85,9.9-66.39,131.64-97.58,194.62
		L336.54,555.86z"/>
</g>
<g id="Layer_2" class="st0">
	<g class="st3">
		<path class="st4" d="M122.75,267.88c-3.93,0-7.19-3.09-7.35-7.05l-5.27-124.68l0.68-1.56c0.56-1.27,57.69-127.4,236.26-127.4
			c4.07,0,7.36,3.29,7.36,7.36s-3.3,7.36-7.36,7.36c-160.26,0-215.21,102.78-222.08,117.1l5.12,121.2c0.17,4.06-2.98,7.49-7.05,7.66
			C122.96,267.88,122.86,267.88,122.75,267.88z"/>
		<path class="st5" d="M123.43,288.24v24.25l19.05,18.19l8.23,71.45c0,0,3.03,22.52,32.48,22.52s103.06,0,103.06,0
			s26.42-2.17,51.96-82.28l10.39-4.33v-31.18l-28.15-18.62H123.43z"/>
		<path class="st4" d="M372.05,692.9H269.93l-1.64-0.89c-32.44-17.63-109.19-116.38-117.32-150.94c-6.14-26.09-8.57-56-9.38-68.66
			C106.9,465.57,86.94,429.02,80.65,361c-3.94-42.45,3.93-66.46,23.36-71.34c3.93-0.95,7.94,1.41,8.93,5.35
			c0.99,3.94-1.4,7.94-5.35,8.93c-10.84,2.72-15.32,23.03-12.29,55.71c8.79,94.9,42.79,97.99,53.96,99l6.41,0.58l0.28,6.43
			c0.02,0.4,1.8,39.99,9.34,72.03c7.07,30.06,78.66,122.42,108.47,140.48h98.29c4.07,0,7.36,3.29,7.36,7.36
			S376.11,692.9,372.05,692.9z"/>
		<path class="st4" d="M429.12,692.9H327c-4.07,0-7.36-3.29-7.36-7.36s3.3-7.36,7.36-7.36h98.29
			c29.81-18.07,101.4-110.42,108.47-140.48c7.55-32.08,9.32-71.63,9.34-72.03l0.28-6.43l6.41-0.58c11.17-1.01,45.18-4.1,53.96-99
			c3.02-32.68-1.46-52.98-12.29-55.71c-3.94-0.99-6.34-4.99-5.35-8.93c0.99-3.95,4.99-6.34,8.93-5.35
			c19.44,4.88,27.3,28.89,23.36,71.34c-6.29,68.02-26.25,104.57-60.94,111.41c-0.81,12.65-3.24,42.57-9.37,68.66
			c-8.14,34.57-84.89,133.32-117.33,150.94L429.12,692.9z"/>
		<path class="st5" d="M573.79,287.37v24.25l-19.05,18.19l-8.23,71.45c0,0-3.03,22.52-32.48,22.52c-29.45,0-103.06,0-103.06,0
			s-26.42-2.17-51.96-82.28l-10.39-4.33v-31.18l28.15-18.62H573.79z"/>
		<path class="st4" d="M574.47,267.88c-0.11,0-0.21,0-0.32-0.01c-4.07-0.17-7.22-3.6-7.05-7.66l5.12-121.2
			c-6.87-14.31-61.82-117.1-222.08-117.1c-4.07,0-7.36-3.29-7.36-7.36s3.3-7.36,7.36-7.36c178.57,0,235.7,126.13,236.26,127.4
			l0.68,1.56l-5.27,124.68C581.65,264.79,578.39,267.88,574.47,267.88z"/>
		<path class="st4" d="M158.51,262.9c-4.07,0-7.36-3.29-7.36-7.36v-36.95l3.13-2.2c3.03-2.14,75.77-52.05,213.27-42.24l16.18,1.15
			l-21.73,21.54c51.96-13.08,118.12-46.66,151.06-73.65l13.49-11.06l-1.49,17.38c-0.19,2.22-0.45,4.63-0.72,7.23
			c-2.46,23.22-6.56,62.08,23.66,110.36c2.16,3.44,1.11,7.99-2.33,10.14c-3.45,2.17-7.99,1.12-10.15-2.34
			c-29-46.32-29-84.45-26.78-110.04c-43.46,30.45-118,64.7-168.23,71.14l-21.55,2.76l31.1-30.82
			c-106.41-4.01-169.8,29.86-184.18,38.52v29.08C165.87,259.61,162.57,262.9,158.51,262.9z"/>
	</g>
</g>
<g id="Layer_3" class="st0">
	<g class="st3">
		<path class="st4" d="M371.84,694.49h-93.99l-1.52-0.82c-29.85-16.22-100.49-107.1-107.98-138.92
			c-5.65-24.01-7.89-51.54-8.63-63.19c-31.92-6.3-50.29-39.94-56.09-102.54c-3.21-34.62,1.86-55.3,15.49-63.22
			c15.49-9,34.21,3.88,35,4.43c3.07,2.14,3.81,6.37,1.67,9.44c-2.15,3.06-6.36,3.8-9.42,1.67c-0.28-0.18-12.64-8.38-20.47-3.81
			c-4.76,2.79-12.22,13.01-8.78,50.24c8.09,87.34,39.38,90.18,49.66,91.12l5.9,0.54l0.25,5.92c0.02,0.36,1.66,36.8,8.6,66.29
			c6.51,27.67,72.39,112.67,99.83,129.29h90.46c3.74,0,6.78,3.03,6.78,6.78S375.58,694.49,371.84,694.49z"/>
		<path class="st4" d="M426.69,694.49h-93.99c-3.74,0-6.78-3.03-6.78-6.78s3.03-6.78,6.78-6.78h90.46
			c27.43-16.62,93.32-101.61,99.83-129.29c6.95-29.52,8.58-65.93,8.59-66.29l0.25-5.92l5.9-0.54c10.28-0.93,41.58-3.78,49.66-91.12
			c3.44-37.23-4.02-47.45-8.78-50.24c-7.84-4.58-20.34,3.73-20.47,3.82c-3.07,2.1-7.29,1.36-9.42-1.71
			c-2.13-3.06-1.39-7.27,1.67-9.41c0.79-0.55,19.52-13.41,35-4.43c13.63,7.91,18.7,28.59,15.49,63.22
			c-5.8,62.61-24.17,96.24-56.09,102.54c-0.74,11.65-2.98,39.18-8.63,63.19c-7.49,31.82-78.13,122.7-107.98,138.92L426.69,694.49z"
			/>
		<path class="st5" d="M571.92,244.93V140.51C496.19-2.97,349.52,8.19,349.52,8.19S202.86-2.97,127.13,140.51v104.42
			c0,0-35.87,25.58-39.06,37.5v15.11c0,0,84.49-8.77,117.18,4.78s49.42,27.07,144.28,27.07s111.59-13.52,144.28-27.07
			c32.68-13.55,117.17-4.78,117.17-4.78v-15.11C607.79,270.51,571.92,244.93,571.92,244.93z"/>
	</g>
</g>
<g id="Layer_4" class="st0">
	<g class="st3">
		<path class="st4" d="M131.96,286.64c-3.77,0-6.91-2.97-7.07-6.78l-5.07-119.88l0.65-1.5C121.02,157.26,175.95,36,347.64,36
			c3.91,0,7.08,3.17,7.08,7.08s-3.17,7.08-7.08,7.08c-154.08,0-206.92,98.82-213.53,112.58l4.92,116.53
			c0.17,3.91-2.87,7.2-6.77,7.37C132.16,286.64,132.06,286.64,131.96,286.64z"/>
		<path class="st4" d="M371.65,695.29h-98.18l-1.58-0.86C240.7,677.47,166.9,582.54,159.08,549.3c-5.9-25.08-8.24-53.85-9.01-66.01
			c-33.35-6.58-52.54-41.72-58.59-107.12c-3.78-40.82,3.78-63.9,22.46-68.59c3.79-0.91,7.64,1.35,8.59,5.14
			c0.95,3.79-1.35,7.63-5.14,8.58c-10.42,2.62-14.73,22.14-11.82,53.56c8.45,91.24,41.14,94.21,51.88,95.19l6.17,0.56l0.27,6.19
			c0.02,0.38,1.73,38.45,8.98,69.26c6.8,28.9,75.63,117.69,104.29,135.06h94.5c3.91,0,7.08,3.17,7.08,7.08
			C378.73,692.12,375.56,695.29,371.65,695.29z"/>
		<path class="st4" d="M426.52,695.29h-98.19c-3.91,0-7.08-3.17-7.08-7.08c0-3.91,3.17-7.08,7.08-7.08h94.5
			c28.66-17.37,97.49-106.16,104.29-135.06c7.26-30.85,8.96-68.88,8.98-69.26l0.27-6.19l6.17-0.56
			c10.74-0.97,43.44-3.95,51.88-95.19c2.91-31.42-1.4-50.94-11.82-53.56c-3.79-0.95-6.09-4.8-5.14-8.58
			c0.95-3.8,4.79-6.09,8.59-5.14c18.69,4.69,26.25,27.77,22.46,68.59c-6.05,65.4-25.24,100.54-58.59,107.12
			c-0.77,12.17-3.11,40.93-9.01,66.02c-7.82,33.23-81.61,128.16-112.8,145.12L426.52,695.29z"/>
		<path class="st4" d="M566.27,286.64c-0.1,0-0.2,0-0.3-0.01c-3.91-0.17-6.94-3.46-6.77-7.37l4.92-116.53
			c-6.6-13.76-59.44-112.58-213.53-112.58c-3.91,0-7.08-3.17-7.08-7.08S346.69,36,350.6,36c171.69,0,226.62,121.27,227.16,122.49
			l0.65,1.5l-5.07,119.88C573.18,283.67,570.04,286.64,566.27,286.64z"/>
		<path class="st4" d="M166.34,281.85c-3.91,0-7.08-3.17-7.08-7.08v-35.53l3.01-2.12c2.91-2.05,72.86-50.06,205.05-40.61l15.56,1.11
			l-20.9,20.7c49.95-12.57,113.57-44.86,145.24-70.81l12.97-10.63l-1.43,16.71c-0.18,2.14-0.43,4.46-0.69,6.95
			c-2.36,22.33-6.31,59.69,22.75,106.11c2.07,3.31,1.07,7.68-2.24,9.75c-3.31,2.09-7.68,1.07-9.76-2.25
			c-27.88-44.53-27.88-81.2-25.74-105.8c-41.78,29.29-113.46,62.21-161.75,68.4l-20.72,2.65l29.9-29.62
			c-102.32-3.79-163.26,28.72-177.08,37.04v27.96C173.41,278.69,170.24,281.85,166.34,281.85z"/>
		<path class="st5" d="M567.03,245.22L540.66,491.2l67.89-6.11c0,0,53.71-52.56,53.71-116.88s-32.48-109.67-32.48-109.67
			L567.03,245.22z"/>
		<path class="st5" d="M132.02,245.22l26.37,245.97l-67.89-6.11c0,0-53.71-52.56-53.71-116.88s32.48-109.67,32.48-109.67
			L132.02,245.22z"/>
		<path class="st5" d="M347.64,5.6c-254.95,0-240.49,250.43-240.49,250.43l16.86,9c0,0,5.18-225.45,223.63-225.45
			s223.63,225.45,223.63,225.45l22.74-9C594,256.03,602.58,5.6,347.64,5.6z"/>
	</g>
</g>
<g id="Layer_5" class="st0">
	<g class="st3">
		<path class="st4" d="M126.05,264.09c-3.87,0-7.08-3.05-7.24-6.95l-5.19-122.87l0.67-1.54c0.55-1.25,56.85-125.55,232.83-125.55
			c4.01,0,7.25,3.24,7.25,7.25s-3.25,7.25-7.25,7.25c-157.93,0-212.09,101.29-218.86,115.39l5.05,119.44c0.17,4-2.94,7.38-6.94,7.55
			C126.25,264.09,126.15,264.09,126.05,264.09z"/>
		<path class="st4" d="M371.72,682.94c-51.59,0-90.97-8.25-92.62-8.6l-1.96-0.72c-31.65-17.2-115.01-105.1-123.29-140.3
			c-6.05-25.71-8.44-55.19-9.24-67.66c-34.18-6.73-53.85-42.75-60.05-109.79c-3.88-41.83,3.87-65.49,23.03-70.3
			c3.88-0.98,7.83,1.38,8.8,5.27c0.98,3.88-1.38,7.82-5.27,8.8c-10.68,2.69-15.1,22.69-12.11,54.9
			c8.66,93.53,42.16,96.56,53.18,97.56l6.32,0.57l0.27,6.34c0.02,0.39,1.77,39.41,9.2,70.98c6.99,29.72,86.73,114.02,115.18,130.36
			c6.54,1.29,43.11,8.08,88.57,8.08c4.01,0,7.25,3.24,7.25,7.25C378.97,679.69,375.73,682.94,371.72,682.94z"/>
		<path class="st4" d="M327.33,682.94c-4.01,0-7.25-3.24-7.25-7.25c0-4.01,3.25-7.25,7.25-7.25c45.98,0,86.06-9.81,92.23-11.39
			c28-15.91,104.46-97.03,111.52-127.04c7.44-31.62,9.19-70.6,9.2-70.99l0.27-6.34l6.32-0.57c11.01-1,44.52-4.03,53.18-97.56
			c2.98-32.21-1.43-52.21-12.11-54.9c-3.89-0.98-6.25-4.92-5.27-8.8c0.97-3.9,4.92-6.28,8.8-5.27c19.15,4.81,26.9,28.47,23.03,70.3
			c-6.21,67.04-25.88,103.06-60.05,109.79c-0.79,12.47-3.19,41.95-9.24,67.67c-8.34,35.42-88.06,119.82-119.45,136.88l-1.56,0.62
			C422.38,671.32,379.12,682.94,327.33,682.94z M422.28,663.83h0.07H422.28z"/>
		<path class="st4" d="M571.2,264.09c-0.1,0-0.21,0-0.31-0.01c-4.01-0.17-7.11-3.55-6.94-7.55L569,137.09
			C562.23,122.99,508.07,21.7,350.14,21.7c-4.01,0-7.25-3.24-7.25-7.25s3.25-7.25,7.25-7.25c175.97,0,232.28,124.29,232.83,125.55
			l0.67,1.54l-5.19,122.87C578.28,261.05,575.07,264.09,571.2,264.09z"/>
		<path class="st4" d="M161.28,259.18c-4.01,0-7.25-3.24-7.25-7.25v-36.42l3.09-2.17c2.99-2.1,74.68-51.31,210.17-41.62l15.94,1.13
			l-21.42,21.23c51.2-12.89,116.41-45.98,148.87-72.58l13.29-10.9l-1.47,17.12c-0.19,2.19-0.44,4.56-0.71,7.13
			c-2.42,22.88-6.47,61.18,23.32,108.75c2.13,3.39,1.09,7.87-2.3,10c-3.4,2.13-7.87,1.1-10-2.3
			c-28.58-45.65-28.58-83.22-26.39-108.44c-42.83,30.01-116.29,63.76-165.79,70.1l-21.24,2.72l30.65-30.37
			c-104.81-3.88-167.34,29.43-181.5,37.96v28.66C168.54,255.94,165.29,259.18,161.28,259.18z"/>
		<path class="st5" d="M161.28,392.61l9.22,115.03c0,0,16.22,178.38,179.64,186.06V366.38L161.28,392.61z"/>
		<path class="st4" d="M170.5,409.91c-2.93,0-5.69-1.79-6.78-4.68l-45.23-119.49c-1.42-3.75,0.47-7.93,4.22-9.36
			c3.75-1.41,7.93,0.47,9.35,4.22l45.23,119.49c1.42,3.75-0.47,7.93-4.22,9.36C172.22,409.76,171.36,409.91,170.5,409.91z"/>
		<path class="st5" d="M539.65,392.61l-9.22,115.03c0,0-16.22,178.38-179.64,186.06V366.38L539.65,392.61z"/>
		<path class="st4" d="M530.43,409.91c-0.85,0-1.72-0.15-2.57-0.47c-3.75-1.42-5.64-5.61-4.22-9.36l45.24-119.49
			c1.42-3.74,5.6-5.63,9.35-4.22c3.75,1.42,5.64,5.61,4.22,9.36l-45.24,119.49C536.12,408.13,533.36,409.91,530.43,409.91z"/>
		<path class="st4" d="M518.11,513.3c-2.43,0-4.8-1.22-6.17-3.44c-2.11-3.41-1.06-7.88,2.35-9.99l41.71-25.83
			c3.4-2.11,7.88-1.06,9.99,2.35c2.11,3.41,1.06,7.88-2.35,9.99l-41.71,25.83C520.73,512.95,519.41,513.3,518.11,513.3z"/>
		<path class="st4" d="M181,514.96c-1.49,0-3.01-0.46-4.3-1.42l-39.45-29.15c-3.22-2.38-3.9-6.93-1.52-10.15
			c2.38-3.22,6.92-3.92,10.15-1.53l39.45,29.15c3.22,2.38,3.9,6.93,1.52,10.15C185.42,513.93,183.23,514.96,181,514.96z"/>
	</g>
</g>
<g id="Layer_6">
	<g>
		<polygon class="st5" points="334.55,11.16 334.55,411.67 224.13,690.52 151.14,690.52 267.18,260.07 242.85,160.88 138.04,372.36 
			87.51,350.84 222.26,54.2 302.74,54.2 302.74,11.16 		"/>
		<polygon class="st5" points="364.5,11.16 364.5,411.67 474.92,690.52 547.91,690.52 431.87,260.07 456.2,160.88 561.01,372.36 
			611.54,350.84 476.79,54.2 396.31,54.2 396.31,11.16 		"/>
	</g>
</g>
</svg>
