<?xml version="1.0" encoding="utf-8"?>
<!-- Generator: Adobe Illustrator 25.0.0, SVG Export Plug-In . SVG Version: 6.00 Build 0)  -->
<svg version="1.1" xmlns="http://www.w3.org/2000/svg" xmlns:xlink="http://www.w3.org/1999/xlink" x="0px" y="0px"
	 viewBox="0 0 700 700" style="enable-background:new 0 0 700 700;" xml:space="preserve">
<style type="text/css">
	.st0{display:none;}
	.st1{display:inline;fill-rule:evenodd;clip-rule:evenodd;fill:#FFFFFF;}
	.st2{display:inline;fill:#FFFFFF;}
	.st3{fill:#FFFFFF;}
	.st4{fill-rule:evenodd;clip-rule:evenodd;fill:#FFFFFF;}
</style>
<g id="Layer_1" class="st0">
	<path class="st1" d="M130.29,263.67l26.62,423.68l239.62-16.21L353.7,225.47c0,0-6.17-21.99-21.99-21.99s-21.61,11.19-20.45,24.7
		s5.02,104.95,5.02,104.95h-12.73l-5.4-129.65c0,0-7.33-26.24-28.94-26.24s-24.7,25.85-24.7,25.85l11.96,141.61h-11.58l-9.26-121.16
		c0,0-3.86-25.85-25.08-23.54s-20.45,25.47-20.45,25.47l10.42,142.77l-10.8,0.39l-9.26-108.81
		C180.45,259.82,154.6,211.2,130.29,263.67z"/>
	<path class="st2" d="M480.72,568.98H312.98l42.1-67.9c3.39-6.91,90.19-182.14,97.74-194.93c5.72-9.69,7.28-31.04-12.9-47.09
		c-15.99-12.7-29.2-4.02-32.54-1.4l-74.4,123.2l-55.73-16.31l-20.64-69.4l0.45-1.76c5.94-23.27,58.09-227.56,61.62-236.38
		c4.05-10.11,17.99-25.36,38.05-23.18c11.65,1.25,19.14,7.82,23.39,13.16l2.29-8.07c9.86-23.02,34.01-25.23,45.38-23.22
		c13.06,2.32,20.03,8.16,23.75,13.52c4.08-4.42,19.16-18.53,40.68-11.93c24.72,7.55,27.65,34.02,27.76,35.14l0.12,1.23l-2.45,8.79
		c6.56-4.16,15.17-6.26,25.61-2.87c25.87,8.39,25.4,25.49,25.37,26.21l-0.1,0.88L480.72,568.98z M336.54,555.86h133.23L555.49,85
		c-0.19-1.26-1.84-8.26-16.28-12.95c-14.7-4.73-22.05,9.01-23.12,11.22l-29.82,91.44l-12.55-3.8l33.04-118.27
		c-0.71-4.12-4.19-18.47-18.38-22.81c-13.82-4.22-23.9,4.8-26.84,7.89l-35.85,141.04l-12.77-3.01l29.6-135.56
		c-0.61-2.28-3.53-9.18-17.04-11.58c-0.91-0.15-22.54-3.59-30.85,15.09l-40.02,144.9l-12.71-3.23l29.75-127.7
		c-1.95-3.19-7.05-9.8-16.33-10.79c-13.39-1.35-22.26,9.49-24.46,15.01c-2.67,7.03-37.55,142.51-60.64,233l17.57,59.09l39.18,11.47
		l70.94-116.95c8.04-7.29,28.86-16.63,50.17,0.3c23.81,18.93,26.03,47.12,16.03,64.04c-5.85,9.9-66.39,131.64-97.58,194.62
		L336.54,555.86z"/>
</g>
<g id="Layer_2">
	<g>
		<path class="st3" d="M122.75,267.88c-3.93,0-7.19-3.09-7.35-7.05l-5.27-124.68l0.68-1.56c0.56-1.27,57.69-127.4,236.26-127.4
			c4.07,0,7.36,3.29,7.36,7.36s-3.3,7.36-7.36,7.36c-160.26,0-215.21,102.78-222.08,117.1l5.12,121.2c0.17,4.06-2.98,7.49-7.05,7.66
			C122.96,267.88,122.86,267.88,122.75,267.88z"/>
		<path class="st4" d="M123.43,288.24v24.25l19.05,18.19l8.23,71.45c0,0,3.03,22.52,32.48,22.52s103.06,0,103.06,0
			s26.42-2.17,51.96-82.28l10.39-4.33v-31.18l-28.15-18.62H123.43z"/>
		<path class="st3" d="M372.05,692.9H269.93l-1.64-0.89c-32.44-17.63-109.19-116.38-117.32-150.94c-6.14-26.09-8.57-56-9.38-68.66
			C106.9,465.57,86.94,429.02,80.65,361c-3.94-42.45,3.93-66.46,23.36-71.34c3.93-0.95,7.94,1.41,8.93,5.35
			c0.99,3.94-1.4,7.94-5.35,8.93c-10.84,2.72-15.32,23.03-12.29,55.71c8.79,94.9,42.79,97.99,53.96,99l6.41,0.58l0.28,6.43
			c0.02,0.4,1.8,39.99,9.34,72.03c7.07,30.06,78.66,122.42,108.47,140.48h98.29c4.07,0,7.36,3.29,7.36,7.36
			S376.11,692.9,372.05,692.9z"/>
		<path class="st3" d="M429.12,692.9H327c-4.07,0-7.36-3.29-7.36-7.36s3.3-7.36,7.36-7.36h98.29
			c29.81-18.07,101.4-110.42,108.47-140.48c7.55-32.08,9.32-71.63,9.34-72.03l0.28-6.43l6.41-0.58c11.17-1.01,45.18-4.1,53.96-99
			c3.02-32.68-1.46-52.98-12.29-55.71c-3.94-0.99-6.34-4.99-5.35-8.93c0.99-3.95,4.99-6.34,8.93-5.35
			c19.44,4.88,27.3,28.89,23.36,71.34c-6.29,68.02-26.25,104.57-60.94,111.41c-0.81,12.65-3.24,42.57-9.37,68.66
			c-8.14,34.57-84.89,133.32-117.33,150.94L429.12,692.9z"/>
		<path class="st4" d="M573.79,287.37v24.25l-19.05,18.19l-8.23,71.45c0,0-3.03,22.52-32.48,22.52c-29.45,0-103.06,0-103.06,0
			s-26.42-2.17-51.96-82.28l-10.39-4.33v-31.18l28.15-18.62H573.79z"/>
		<path class="st3" d="M574.47,267.88c-0.11,0-0.21,0-0.32-0.01c-4.07-0.17-7.22-3.6-7.05-7.66l5.12-121.2
			c-6.87-14.31-61.82-117.1-222.08-117.1c-4.07,0-7.36-3.29-7.36-7.36s3.3-7.36,7.36-7.36c178.57,0,235.7,126.13,236.26,127.4
			l0.68,1.56l-5.27,124.68C581.65,264.79,578.39,267.88,574.47,267.88z"/>
		<path class="st3" d="M158.51,262.9c-4.07,0-7.36-3.29-7.36-7.36v-36.95l3.13-2.2c3.03-2.14,75.77-52.05,213.27-42.24l16.18,1.15
			l-21.73,21.54c51.96-13.08,118.12-46.66,151.06-73.65l13.49-11.06l-1.49,17.38c-0.19,2.22-0.45,4.63-0.72,7.23
			c-2.46,23.22-6.56,62.08,23.66,110.36c2.16,3.44,1.11,7.99-2.33,10.14c-3.45,2.17-7.99,1.12-10.15-2.34
			c-29-46.32-29-84.45-26.78-110.04c-43.46,30.45-118,64.7-168.23,71.14l-21.55,2.76l31.1-30.82
			c-106.41-4.01-169.8,29.86-184.18,38.52v29.08C165.87,259.61,162.57,262.9,158.51,262.9z"/>
	</g>
</g>
</svg>
