<?xml version="1.0" encoding="utf-8"?>
<!-- Generator: Adobe Illustrator 25.0.0, SVG Export Plug-In . SVG Version: 6.00 Build 0)  -->
<svg version="1.1" id="Layer_1" xmlns="http://www.w3.org/2000/svg" xmlns:xlink="http://www.w3.org/1999/xlink" x="0px" y="0px"
	 viewBox="0 0 700 700" style="enable-background:new 0 0 700 700;" xml:space="preserve">
<style type="text/css">
	.st0{fill-rule:evenodd;clip-rule:evenodd;fill:#FFFFFF;}
	.st1{fill:#FFFFFF;}
</style>
<path class="st0" d="M130.29,263.67l26.62,423.68l239.62-16.21L353.7,225.47c0,0-6.17-21.99-21.99-21.99s-21.61,11.19-20.45,24.7
	s5.02,104.95,5.02,104.95h-12.73l-5.4-129.65c0,0-7.33-26.24-28.94-26.24s-24.7,25.85-24.7,25.85l11.96,141.61h-11.58l-9.26-121.16
	c0,0-3.86-25.85-25.08-23.54s-20.45,25.47-20.45,25.47l10.42,142.77l-10.8,0.39l-9.26-108.81
	C180.45,259.82,154.6,211.2,130.29,263.67z"/>
<path class="st1" d="M480.72,568.98H312.98l42.1-67.9c3.39-6.91,90.19-182.14,97.74-194.93c5.72-9.69,7.28-31.04-12.9-47.09
	c-15.99-12.7-29.2-4.02-32.54-1.4l-74.4,123.2l-55.73-16.31l-20.64-69.4l0.45-1.76c5.94-23.27,58.09-227.56,61.62-236.38
	c4.05-10.11,17.99-25.36,38.05-23.18c11.65,1.25,19.14,7.82,23.39,13.16l2.29-8.07c9.86-23.02,34.01-25.23,45.38-23.22
	c13.06,2.32,20.03,8.16,23.75,13.52c4.08-4.42,19.16-18.53,40.68-11.93c24.72,7.55,27.65,34.02,27.76,35.14l0.12,1.23l-2.45,8.79
	c6.56-4.16,15.17-6.26,25.61-2.87c25.87,8.39,25.4,25.49,25.37,26.21l-0.1,0.88L480.72,568.98z M336.54,555.86h133.23L555.49,85
	c-0.19-1.26-1.84-8.26-16.28-12.95c-14.7-4.73-22.05,9.01-23.12,11.22l-29.82,91.44l-12.55-3.8l33.04-118.27
	c-0.71-4.12-4.19-18.47-18.38-22.81c-13.82-4.22-23.9,4.8-26.84,7.89l-35.85,141.04l-12.77-3.01l29.6-135.56
	c-0.61-2.28-3.53-9.18-17.04-11.58c-0.91-0.15-22.54-3.59-30.85,15.09l-40.02,144.9l-12.71-3.23l29.75-127.7
	c-1.95-3.19-7.05-9.8-16.33-10.79c-13.39-1.35-22.26,9.49-24.46,15.01c-2.67,7.03-37.55,142.51-60.64,233l17.57,59.09l39.18,11.47
	l70.94-116.95c8.04-7.29,28.86-16.63,50.17,0.3c23.81,18.93,26.03,47.12,16.03,64.04c-5.85,9.9-66.39,131.64-97.58,194.62
	L336.54,555.86z"/>
</svg>
